<svg width="17" height="17" viewBox="0 0 17 17" fill="none" xmlns="http://www.w3.org/2000/svg">
<path d="M10.8907 8.49855L16.4974 2.91107C16.6558 2.75273 16.7815 2.56474 16.8672 2.35785C16.953 2.15095 16.9971 1.92921 16.9971 1.70527C16.9971 1.48133 16.953 1.25958 16.8672 1.05269C16.7815 0.845795 16.6558 0.657808 16.4974 0.499459C16.339 0.34111 16.151 0.215501 15.944 0.129804C15.737 0.0441059 15.5152 -2.71276e-06 15.2911 -2.67359e-06C15.0671 -2.63442e-06 14.8453 0.044106 14.6383 0.129804C14.4313 0.215502 14.2432 0.341111 14.0848 0.499459L7.28878 7.29274C7.12953 7.45062 7.00313 7.63846 6.91688 7.84541C6.83062 8.05237 6.78621 8.27435 6.78621 8.49855C6.78621 8.72275 6.83062 8.94473 6.91688 9.15168C7.00313 9.35864 7.12953 9.54648 7.28878 9.70436L14.0848 16.4976C14.2428 16.6568 14.4307 16.7832 14.6377 16.8694C14.8448 16.9556 15.0668 17 15.2911 17C15.5154 17 15.7375 16.9556 15.9445 16.8694C16.1516 16.7832 16.3395 16.6568 16.4974 16.4976C16.6567 16.3398 16.7831 16.1519 16.8693 15.945C16.9556 15.738 17 15.516 17 15.2918C17 15.0676 16.9556 14.8456 16.8693 14.6387C16.7831 14.4317 16.6567 14.2439 16.4974 14.086L10.8907 8.49855ZM1.69902 0.00694879C1.24841 0.00694887 0.816257 0.185879 0.49763 0.504376C0.179003 0.822873 2.19404e-07 1.25485 2.98159e-07 1.70527L2.67371e-06 15.2918C2.75246e-06 15.7423 0.179006 16.1742 0.497633 16.4927C0.81626 16.8112 1.24841 16.9902 1.69902 16.9902C2.14962 16.9902 2.58178 16.8112 2.9004 16.4927C3.21903 16.1742 3.39803 15.7423 3.39803 15.2918L3.39803 1.70527C3.39803 1.25485 3.21903 0.822872 2.9004 0.504375C2.58177 0.185879 2.14962 0.00694871 1.69902 0.00694879Z" fill="black"/>
</svg>
